<svg xmlns="http://www.w3.org/2000/svg" xmlns:xlink="http://www.w3.org/1999/xlink" viewBox="0,0,256,256" width="50px" height="50px" fill-rule="nonzero"><g fill="none" fill-rule="nonzero" stroke="none" stroke-width="1" stroke-linecap="butt" stroke-linejoin="miter" stroke-miterlimit="10" stroke-dasharray="" stroke-dashoffset="0" font-family="none" font-weight="none" font-size="none" text-anchor="none" style="mix-blend-mode: normal"><g transform="scale(2.56,2.56)"><path d="M46.639,32.564c-0.929,0 -1.681,-0.752 -1.681,-1.68v-12.815c0,-0.928 0.752,-1.681 1.681,-1.681c0.929,0 1.681,0.753 1.681,1.681v12.814c0,0.929 -0.752,1.681 -1.681,1.681z" fill="#d37b00"></path><path d="M53.361,83.611c-0.929,0 -1.68,-0.752 -1.68,-1.68v-28.57c0,-0.928 0.751,-1.681 1.68,-1.681c0.929,0 1.681,0.752 1.681,1.681v28.569c0,0.928 -0.752,1.681 -1.681,1.681z" fill="#d37b00"></path><path d="M45.692,49.673c-0.686,0 -1.331,-0.424 -1.578,-1.107l-9.772,-26.846c-0.318,-0.871 0.132,-1.837 1.005,-2.153c0.87,-0.32 1.837,0.133 2.153,1.005l9.772,26.846c0.319,0.871 -0.131,1.836 -1.004,2.153c-0.191,0.069 -0.386,0.102 -0.576,0.102z" fill="#d37b00"></path><path d="M64.079,80.536c-0.686,0 -1.331,-0.424 -1.579,-1.107l-4.728,-12.99c-0.318,-0.871 0.131,-1.836 1.004,-2.153c0.87,-0.322 1.836,0.132 2.153,1.004l4.728,12.991c0.318,0.871 -0.132,1.837 -1.004,2.153c-0.188,0.069 -0.383,0.102 -0.574,0.102z" fill="#d37b00"></path><path d="M35.774,39.955c-0.481,0 -0.957,-0.204 -1.288,-0.601l-8.872,-10.574c-0.597,-0.711 -0.504,-1.771 0.207,-2.368c0.714,-0.597 1.774,-0.502 2.367,0.208l8.872,10.574c0.597,0.711 0.504,1.771 -0.207,2.368c-0.315,0.264 -0.698,0.393 -1.079,0.393z" fill="#d37b00"></path><path d="M73.101,73.98c-0.481,0 -0.957,-0.204 -1.288,-0.601l-18.365,-21.885c-0.597,-0.711 -0.504,-1.771 0.207,-2.367c0.716,-0.597 1.773,-0.502 2.367,0.207l18.365,21.885c0.597,0.711 0.504,1.771 -0.207,2.367c-0.316,0.265 -0.698,0.394 -1.079,0.394z" fill="#d37b00"></path><path d="M45.406,52.91c-0.285,0 -0.574,-0.072 -0.839,-0.224l-24.74,-14.285c-0.804,-0.464 -1.08,-1.492 -0.615,-2.296c0.464,-0.805 1.492,-1.081 2.296,-0.615l24.741,14.285c0.804,0.465 1.08,1.493 0.615,2.296c-0.312,0.539 -0.877,0.839 -1.458,0.839z" fill="#d37b00"></path><path d="M79.331,64.735c-0.285,0 -0.574,-0.073 -0.839,-0.225l-11.365,-6.562c-0.804,-0.465 -1.08,-1.493 -0.616,-2.296c0.465,-0.805 1.494,-1.081 2.296,-0.616l11.365,6.562c0.804,0.465 1.08,1.493 0.616,2.296c-0.311,0.54 -0.876,0.841 -1.457,0.841z" fill="#d37b00"></path><path d="M30.646,51.681c-0.097,0 -0.196,-0.008 -0.294,-0.025l-12.673,-2.235c-0.915,-0.162 -1.525,-1.033 -1.362,-1.947c0.161,-0.914 1.031,-1.521 1.946,-1.363l12.673,2.235c0.914,0.162 1.524,1.033 1.362,1.948c-0.142,0.813 -0.851,1.387 -1.652,1.387z" fill="#d37b00"></path><path d="M82.031,53.915c-0.097,0 -0.196,-0.008 -0.294,-0.026l-28.134,-4.961c-0.914,-0.162 -1.525,-1.033 -1.362,-1.947c0.161,-0.913 1.031,-1.523 1.946,-1.363l28.135,4.961c0.914,0.162 1.525,1.033 1.362,1.947c-0.143,0.815 -0.852,1.389 -1.653,1.389z" fill="#d37b00"></path><path d="M19.136,60.535c-0.801,0 -1.51,-0.574 -1.653,-1.389c-0.162,-0.914 0.448,-1.785 1.362,-1.947l28.136,-4.962c0.911,-0.163 1.785,0.449 1.946,1.363c0.162,0.914 -0.448,1.785 -1.362,1.947l-28.135,4.963c-0.099,0.017 -0.197,0.025 -0.294,0.025z" fill="#d37b00"></path><path d="M68.767,44.958c-0.801,0 -1.51,-0.574 -1.652,-1.389c-0.163,-0.914 0.448,-1.785 1.362,-1.947l12.093,-2.132c0.911,-0.165 1.785,0.449 1.946,1.363c0.162,0.915 -0.448,1.786 -1.362,1.948l-12.094,2.132c-0.098,0.017 -0.197,0.025 -0.293,0.025z" fill="#d37b00"></path><path d="M24.03,70.557c-0.581,0 -1.145,-0.301 -1.457,-0.84c-0.465,-0.804 -0.189,-1.832 0.615,-2.296l12.369,-7.142c0.801,-0.465 1.832,-0.189 2.296,0.615c0.464,0.804 0.189,1.831 -0.615,2.296l-12.37,7.142c-0.263,0.152 -0.552,0.225 -0.838,0.225z" fill="#d37b00"></path><path d="M51.232,47.089c-0.581,0 -1.146,-0.301 -1.457,-0.84c-0.464,-0.804 -0.189,-1.831 0.615,-2.296l24.741,-14.285c0.801,-0.465 1.83,-0.189 2.296,0.615c0.464,0.804 0.189,1.831 -0.615,2.296l-24.741,14.286c-0.264,0.152 -0.553,0.224 -0.839,0.224z" fill="#d37b00"></path><path d="M32.049,78.301c-0.381,0 -0.763,-0.129 -1.078,-0.393c-0.711,-0.596 -0.804,-1.657 -0.207,-2.367l18.363,-21.885c0.596,-0.709 1.655,-0.805 2.366,-0.207c0.711,0.596 0.805,1.657 0.207,2.367l-18.363,21.885c-0.331,0.395 -0.807,0.6 -1.288,0.6z" fill="#d37b00"></path><path d="M59.865,34.693c-0.381,0 -0.764,-0.129 -1.079,-0.393c-0.711,-0.597 -0.804,-1.657 -0.207,-2.368l8.083,-9.633c0.596,-0.709 1.654,-0.805 2.367,-0.207c0.711,0.596 0.804,1.657 0.207,2.367l-8.083,9.633c-0.331,0.397 -0.807,0.601 -1.288,0.601z" fill="#d37b00"></path><path d="M42.237,82.835c-0.19,0 -0.386,-0.032 -0.574,-0.102c-0.873,-0.317 -1.323,-1.282 -1.004,-2.154l4.401,-12.092c0.317,-0.871 1.284,-1.323 2.153,-1.003c0.873,0.317 1.323,1.282 1.005,2.154l-4.402,12.091c-0.248,0.682 -0.893,1.106 -1.579,1.106z" fill="#d37b00"></path><path d="M47.991,47.374c-0.19,0 -0.386,-0.033 -0.575,-0.103c-0.873,-0.317 -1.323,-1.281 -1.004,-2.153l9.772,-26.846c0.316,-0.872 1.285,-1.325 2.153,-1.004c0.873,0.317 1.323,1.281 1.005,2.153l-9.772,26.845c-0.248,0.683 -0.893,1.108 -1.579,1.108z" fill="#d37b00"></path><g><path d="M44.958,50c0,-2.784 2.257,-5.041 5.042,-5.041c2.785,0 5.042,2.257 5.042,5.041c0,2.785 -2.257,5.042 -5.042,5.042c-2.785,0 -5.042,-2.258 -5.042,-5.042z" fill="#140a1b"></path><path d="M50,56.722c-3.708,0 -6.722,-3.016 -6.722,-6.723c0,-3.706 3.014,-6.722 6.722,-6.722c3.708,0 6.722,3.016 6.722,6.722c0,3.708 -3.014,6.723 -6.722,6.723zM50,46.639c-1.853,0 -3.361,1.507 -3.361,3.361c0,1.854 1.508,3.362 3.361,3.362c1.853,0 3.361,-1.507 3.361,-3.362c0,-1.854 -1.508,-3.361 -3.361,-3.361z" fill="#fc8319"></path></g><g><path d="M50,83.611c-18.533,0 -33.611,-15.078 -33.611,-33.611c0,-18.533 15.078,-33.611 33.611,-33.611c18.534,0 33.611,15.078 33.611,33.611c0,18.533 -15.077,33.611 -33.611,33.611zM50,19.75c-16.679,0 -30.25,13.57 -30.25,30.25c0,16.68 13.571,30.25 30.25,30.25c16.679,0 30.25,-13.57 30.25,-30.25c0,-16.68 -13.571,-30.25 -30.25,-30.25z" fill="#d37b00"></path><path d="M50,11.347c-21.347,0 -38.652,17.305 -38.652,38.652c0,21.348 17.305,38.653 38.652,38.653c21.347,0 38.653,-17.305 38.653,-38.653c0,-21.346 -17.306,-38.652 -38.653,-38.652zM50,81.93c-17.635,0 -31.93,-14.295 -31.93,-31.93c0,-17.635 14.296,-31.93 31.93,-31.93c17.635,0 31.93,14.296 31.93,31.93c0,17.635 -14.295,31.93 -31.93,31.93z" fill="#140a1b"></path><path d="M50,90.333c-22.234,0 -40.333,-18.1 -40.333,-40.334c0,-22.232 18.099,-40.332 40.333,-40.332c9.798,0 19.243,3.562 26.604,10.016c0.689,0.605 0.756,1.681 0.151,2.369c-0.589,0.673 -1.697,0.74 -2.37,0.152c-6.739,-5.916 -15.41,-9.176 -24.384,-9.176c-20.353,0.034 -36.94,16.62 -36.973,36.972c0.033,20.351 16.62,36.938 36.972,36.972c20.351,-0.034 36.937,-16.621 36.972,-36.972c0,-6.235 -1.58,-12.385 -4.57,-17.814c-0.455,-0.824 -0.153,-1.849 0.654,-2.285c0.79,-0.437 1.848,-0.134 2.286,0.655c3.259,5.915 4.991,12.638 4.991,19.444c0,22.233 -18.1,40.333 -40.333,40.333zM50,83.611c-18.537,0 -33.611,-15.074 -33.611,-33.611c0,-18.537 15.074,-33.611 33.611,-33.611c18.537,0 33.611,15.074 33.611,33.611c0,18.536 -15.074,33.611 -33.611,33.611zM50,19.75c-16.654,0.034 -30.217,13.595 -30.25,30.25c0.033,16.654 13.596,30.216 30.25,30.25c16.655,-0.034 30.215,-13.596 30.25,-30.25c-0.035,-16.655 -13.595,-30.216 -30.25,-30.25zM80.132,27.48c-0.504,0 -0.991,-0.235 -1.311,-0.639c-0.267,-0.353 -0.402,-0.789 -0.353,-1.226c0.051,-0.454 0.269,-0.857 0.622,-1.126c0.69,-0.571 1.799,-0.437 2.353,0.252c0.588,0.723 0.471,1.781 -0.252,2.37c-0.303,0.235 -0.672,0.369 -1.059,0.369z" fill="#fc8319"></path></g></g></g></svg>