<svg xmlns="http://www.w3.org/2000/svg" xmlns:xlink="http://www.w3.org/1999/xlink" viewBox="0,0,256,256" width="67px" height="67px" fill-rule="evenodd"><g fill="none" fill-rule="evenodd" stroke="none" stroke-width="1" stroke-linecap="butt" stroke-linejoin="miter" stroke-miterlimit="10" stroke-dasharray="" stroke-dashoffset="0" font-family="none" font-weight="none" font-size="none" text-anchor="none" style="mix-blend-mode: normal"><g transform="scale(0.05905,0.05905)"><path d="M1714,1265c-1,2 -3,4 -5,8l-56,71c-13,17 -24,31 -37,48c-7,9 -18,22 -26,33c3,5 6,11 7,18l200,32c0,-5 0,-10 0,-16c0,-77 -33,-146 -85,-194zM1534,1105c-195,0 -353,158 -353,353c0,195 158,353 353,353c163,0 301,-111 341,-261c119,10 102,34 129,44c-2,21 -7,39 -11,60c-10,50 -3,23 -31,35l-2,21l75,4c2,-30 3,-20 -17,-29l17,-69c10,-35 31,-13 44,-44c12,-26 -5,-26 11,-48c8,-10 19,-19 29,-31c10,-12 19,-19 28,-31l278,-312l11,25c-86,64 -142,167 -142,283c0,195 158,353 353,353c99,0 188,-41 252,-106c21,-21 40,-46 56,-74c29,-51 46,-111 46,-174c0,-195 -158,-353 -353,-353c-57,0 -111,13 -158,37c-14,-47 -70,-197 -87,-239c-15,-38 12,-43 23,-79c-16,-14 -22,-20 -35,-36c-32,-39 -37,-31 -143,-29h-8v38c84,2 103,-13 128,28c-20,38 -31,35 -17,80c6,22 24,74 23,92h-443c-32,0 -37,7 -45,-19c11,-8 62,-18 102,-36c19,-9 24,-7 24,-28c-8,-7 -23,-11 -41,-13h-218c-25,0 -58,-10 -45,16c25,51 100,43 113,66c0,0 4,11 5,12c3,8 8,18 7,25c-1,9 -87,115 -109,139c-55,-35 -119,-55 -189,-55zM1886,1492c1,-11 2,-23 2,-34c0,-104 -45,-197 -116,-262c-1,-1 -1,-2 -2,-3c9,-15 29,-36 42,-52c13,-16 29,-37 43,-49l136,410zM1534,1193c-146,0 -264,118 -264,264c0,146 118,264 264,264c120,0 221,-80 254,-189c-51,-9 -143,-29 -200,-38c-12,17 -32,28 -54,28c-36,0 -66,-29 -66,-66c0,-36 29,-66 66,-66c6,0 11,1 17,2c1,-2 3,-4 4,-6c16,-22 28,-37 44,-58c10,-13 53,-68 73,-99c-40,-25 -87,-39 -138,-39zM2648,1193c-47,0 -92,12 -130,34c16,59 47,104 78,139c11,13 21,22 30,30c7,-3 15,-4 23,-4c36,0 66,29 66,66c0,36 -29,66 -66,66c-36,0 -66,-29 -66,-66c0,-10 2,-19 6,-27c-3,-2 -7,-5 -10,-9c-30,-30 -55,-56 -77,-92c-10,-16 -22,-49 -33,-66c-52,48 -84,117 -84,194c0,146 118,264 264,264c146,0 265,-118 265,-264c0,-146 -118,-264 -265,-264zM2396,1056h-485l125,383c3,-4 1,1 5,-10c6,-16 2,-17 -1,-21c-7,-12 -12,10 -8,-30h64c0,13 2,13 -5,22l-14,9v31c0,-1 0,2 1,3l242,-270c26,-25 52,-66 82,-88l-6,-28z" fill="#fc6638"></path><path d="M2091,68c739,0 1338,599 1338,1338c0,12 0,23 0,34v0c0,11 -1,22 -1,33v2c-1,11 -1,21 -2,31v3c-1,11 -2,21 -3,31v2c-1,11 -2,21 -4,32v3c-1,10 -3,20 -4,30l-1,4c-1,9 -3,19 -5,28l-1,5c-2,9 -3,18 -5,28l-1,5c-2,10 -4,19 -6,29l-1,5c-2,9 -4,18 -6,26l-2,6c-2,8 -4,16 -7,25l-2,8c-2,8 -4,15 -7,23l-3,11c-2,7 -4,13 -6,20l-4,12c-2,6 -4,12 -6,17c-2,5 -4,10 -5,15c-2,6 -4,11 -7,17l-5,14c-2,5 -4,10 -6,16c-2,5 -4,10 -6,15l-6,14c-2,5 -5,10 -7,16l-6,13c-3,6 -6,13 -9,19l-5,9c-3,6 -6,12 -9,18l-7,13v0l-1180,2206l-1180,-2206v0c-2,-4 -5,-9 -7,-13c-3,-6 -6,-12 -9,-18l-5,-9c-3,-6 -6,-13 -9,-19l-6,-13c-2,-5 -5,-10 -7,-16c-2,-5 -4,-9 -6,-14c-2,-5 -4,-10 -6,-15c-2,-5 -4,-10 -6,-16l-5,-14c-2,-6 -4,-11 -7,-17c-2,-5 -4,-10 -5,-15c-2,-6 -4,-12 -6,-17l-4,-12c-2,-7 -4,-13 -6,-20l-3,-11c-2,-8 -5,-15 -7,-23l-2,-8c-2,-8 -5,-16 -7,-25l-2,-6c-2,-9 -4,-18 -6,-26l-1,-5c-2,-9 -4,-19 -6,-29l-1,-5c-2,-9 -4,-18 -5,-28l-1,-5c-2,-9 -3,-19 -5,-28l-1,-4c-2,-10 -3,-20 -4,-30v-3c-1,-11 -3,-21 -4,-32v-2c-1,-10 -2,-21 -3,-31v-3c-1,-10 -1,-21 -2,-31v-2c-1,-11 -1,-22 -1,-33v0c0,-11 0,-23 0,-34c0,-739 599,-1338 1338,-1338zM2091,333c585,0 1058,474 1058,1058c0,584 -474,1058 -1058,1058c-585,0 -1058,-474 -1058,-1058c0,-585 474,-1058 1058,-1058z" fill="#ff5a01"></path></g></g></svg>